<?xml version="1.0" standalone="no"?>
<!DOCTYPE svg PUBLIC "-//W3C//DTD SVG 20010904//EN"
 "http://www.w3.org/TR/2001/REC-SVG-20010904/DTD/svg10.dtd">
<svg version="1.0" xmlns="http://www.w3.org/2000/svg"
 width="4096.000000pt" height="966.000000pt" viewBox="0 0 4096.000000 966.000000"
 preserveAspectRatio="xMidYMid meet">
<metadata>
Created by potrace 1.16, written by Peter Selinger 2001-2019
</metadata>
<g transform="translate(0.000000,966.000000) scale(0.100000,-0.100000)"
fill="#000000" stroke="none">
<path d="M9496 9653 c-10 -3 -289 -115 -620 -249 -368 -150 -609 -253 -622
-267 -12 -12 -175 -195 -364 -407 -188 -212 -351 -394 -361 -404 -17 -19 -25
-17 -408 90 -215 60 -391 111 -391 114 0 3 314 135 698 295 874 363 812 335
787 346 -11 5 -155 43 -320 85 -442 112 -396 119 -1093 -152 -983 -382 -3020
-1205 -4317 -1744 -1366 -568 -1982 -844 -1960 -879 2 -5 91 -11 197 -14 149
-4 211 -10 273 -26 88 -23 212 -80 239 -110 17 -18 15 -20 -81 -51 -156 -52
-404 -146 -590 -226 -167 -71 -509 -238 -547 -267 -17 -12 18 -15 290 -20 519
-9 760 -52 1116 -198 140 -57 440 -200 434 -206 -2 -3 -69 -26 -148 -53 -266
-89 -630 -239 -853 -352 -101 -52 -101 -52 35 -63 302 -26 723 -157 1021 -317
l76 -41 6 -240 c24 -851 -7 -1738 -84 -2425 -11 -101 -18 -186 -14 -190 3 -3
250 237 548 534 298 298 1719 1708 3157 3134 1438 1426 2851 2828 3140 3115
289 287 547 536 574 553 66 43 116 56 151 40 53 -24 58 -50 69 -340 5 -148 13
-268 17 -268 12 0 17 11 162 380 74 190 141 373 148 408 26 134 -5 268 -79
346 -55 57 -103 76 -192 75 -41 -1 -83 -3 -94 -6z"/>
<path d="M18353 6559 c-487 -38 -804 -238 -982 -621 -65 -138 -1470 -3760
-1492 -3844 -91 -353 39 -593 369 -677 l87 -22 1740 0 c1607 0 1749 1 1855 18
598 91 903 328 1143 887 25 58 342 866 705 1795 434 1110 666 1716 676 1767 9
42 16 117 16 165 0 282 -160 454 -483 520 -75 15 -236 17 -1807 19 -949 1
-1771 -2 -1827 -7z m2469 -537 c51 -17 95 -57 103 -92 4 -17 0 -53 -10 -86
-18 -64 -1411 -3615 -1455 -3709 -65 -141 -142 -196 -300 -215 -53 -7 -371
-10 -855 -8 -760 3 -771 3 -810 24 -78 41 -99 128 -61 259 21 72 1407 3558
1443 3629 58 115 163 187 299 205 110 14 1601 8 1646 -7z"/>
<path d="M13912 6519 c-175 -17 -301 -64 -423 -157 -35 -26 -797 -664 -1694
-1417 -2674 -2246 -3556 -2986 -3640 -3056 -210 -172 -456 -343 -591 -409 -46
-22 -84 -45 -84 -49 0 -13 1381 -25 1477 -12 157 20 316 102 527 274 55 44
492 411 970 816 479 404 898 755 931 779 33 25 101 64 150 88 161 77 119 75
1260 72 l1010 -3 54 -30 c93 -51 131 -143 98 -237 -33 -97 -463 -1017 -500
-1073 -122 -180 -388 -388 -702 -547 -172 -88 -215 -114 -215 -133 0 -14 114
-15 1033 -13 989 3 1034 4 1082 22 67 26 152 112 193 196 17 36 437 1102 933
2370 988 2523 940 2392 884 2458 -16 19 -47 39 -78 49 -48 17 -139 18 -1322
19 -698 1 -1307 -2 -1353 -7z m899 -482 c63 -42 70 -121 24 -256 -38 -112
-594 -1471 -640 -1566 -52 -107 -92 -158 -148 -188 l-42 -22 -865 0 c-810 0
-867 1 -897 18 -53 28 -46 66 25 137 53 54 1959 1653 2074 1740 115 87 288
159 384 160 37 0 60 -6 85 -23z"/>
<path d="M22770 6523 c0 -5 35 -29 78 -55 123 -74 279 -195 387 -300 l100 -98
1661 0 c1244 0 1670 -3 1695 -12 96 -33 142 -118 114 -209 -7 -21 -574 -1481
-651 -1674 -38 -96 -67 -137 -117 -166 l-42 -24 -785 -6 c-432 -3 -827 -2
-879 3 -196 16 -256 92 -201 252 11 32 110 279 221 549 175 427 203 501 207
558 6 81 -11 118 -65 145 -36 18 -73 19 -600 22 -463 2 -574 0 -632 -12 -109
-23 -159 -65 -221 -186 -39 -77 -1438 -3584 -1450 -3634 -26 -112 4 -194 85
-236 l50 -25 590 0 c578 0 591 0 635 21 64 30 116 87 160 179 22 44 168 422
325 840 157 418 298 780 312 805 39 67 121 149 177 177 28 14 75 28 106 30
110 10 231 -72 302 -203 14 -27 178 -424 363 -883 185 -459 342 -846 350 -860
18 -35 63 -77 100 -93 46 -20 2725 -25 2725 -5 0 23 -31 44 -104 71 -51 20
-121 65 -280 182 -131 97 -243 172 -296 198 l-85 41 -290 5 c-323 6 -335 8
-393 74 -17 20 -43 58 -56 84 -38 74 -493 1154 -505 1198 -17 61 -14 98 12
122 47 44 63 45 522 53 472 7 503 10 659 66 227 81 413 236 553 458 57 90 106
207 436 1040 343 866 358 910 343 1024 -34 251 -166 402 -407 468 -60 16 -218
18 -2636 20 -1415 2 -2573 0 -2573 -4z"/>
<path d="M28482 6503 c3 -30 6 -31 127 -82 200 -83 546 -352 677 -524 59 -78
95 -155 96 -206 0 -29 -171 -472 -661 -1715 -364 -921 -672 -1711 -686 -1753
-78 -239 -69 -461 24 -597 62 -89 154 -148 299 -189 l77 -22 1850 0 c1755 0
1855 1 1955 18 135 24 235 56 335 107 221 113 403 316 539 600 30 63 385 961
789 1995 404 1034 763 1949 796 2033 34 85 66 176 72 203 21 95 -17 131 -153
149 -42 5 -590 10 -1310 10 l-1238 0 0 -23 c0 -37 19 -51 125 -98 348 -154
687 -460 751 -676 34 -116 75 1 -666 -1877 -375 -951 -696 -1751 -712 -1778
-39 -62 -98 -112 -167 -140 l-56 -23 -838 -3 c-811 -3 -839 -2 -881 17 -64 28
-81 60 -79 146 0 41 9 93 21 125 11 30 373 972 806 2092 432 1120 791 2059
798 2087 15 68 0 103 -55 128 -40 17 -110 18 -1340 21 l-1298 3 3 -28z"/>
<path d="M36247 6519 c-423 -35 -648 -160 -853 -474 -115 -177 -214 -390 -400
-860 -367 -928 -359 -906 -390 -1048 -33 -156 -13 -334 49 -439 32 -55 121
-139 176 -168 57 -28 189 -56 336 -70 120 -11 880 -15 1005 -5 36 3 265 10
510 16 577 13 939 -4 1088 -52 32 -10 32 -11 32 -74 0 -82 -29 -230 -75 -387
-102 -343 -322 -788 -467 -940 -41 -44 -48 -47 -168 -77 l-125 -31 -1530 0
c-974 0 -1555 -4 -1600 -10 -120 -18 -180 -54 -313 -187 -129 -130 -198 -177
-323 -218 -58 -20 -79 -32 -88 -51 -6 -14 -11 -28 -11 -31 0 -3 1075 -3 2390
1 1972 6 2406 9 2482 21 358 54 634 231 796 510 22 39 156 358 298 710 l257
640 5 95 c13 275 -144 485 -423 567 -56 17 -148 18 -1385 18 -1307 0 -1325 0
-1358 20 -78 46 -94 166 -44 310 16 44 161 408 322 809 l294 729 59 64 c40 43
80 73 125 95 l67 33 1625 0 c1579 0 1626 1 1670 19 72 31 168 97 265 182 168
149 257 209 340 228 41 10 75 33 75 51 0 13 -278 15 -2307 14 -1270 -1 -2352
-5 -2406 -10z"/>
<path d="M3935 3455 l-1340 -1365 -73 -326 c-40 -179 -72 -327 -70 -328 130
-104 1965 -1436 1974 -1434 8 2 1020 824 2249 1827 1471 1200 2234 1829 2231
1838 -4 10 -506 734 -521 751 -3 4 -1337 -277 -1343 -283 -3 -3 -3 -6 -1 -8 2
-2 195 -79 427 -171 233 -93 420 -172 415 -176 -4 -4 -645 -343 -1423 -755
-778 -411 -1429 -756 -1447 -765 l-31 -18 -215 139 -215 140 28 87 c322 1003
702 2185 706 2197 3 8 2 15 -2 15 -5 0 -612 -614 -1349 -1365z"/>
</g>
</svg>
