<?xml version="1.0" standalone="no"?>
<!DOCTYPE svg PUBLIC "-//W3C//DTD SVG 20010904//EN"
 "http://www.w3.org/TR/2001/REC-SVG-20010904/DTD/svg10.dtd">
<svg version="1.0" xmlns="http://www.w3.org/2000/svg"
 width="3840.000000pt" height="2160.000000pt" viewBox="0 0 3840.000000 2160.000000"
 preserveAspectRatio="xMidYMid meet">
<g transform="translate(0.000000,2160.000000) scale(0.100000,-0.100000)"
fill="#000000" stroke="none">
<path d="M11560 14764 c-412 -56 -765 -199 -1072 -436 -114 -88 -387 -354
-475 -463 -152 -189 -288 -464 -409 -830 l-53 -160 0 948 -1 947 -1957 -2
-1958 -3 -80 -23 c-172 -50 -314 -138 -439 -273 -74 -80 -285 -392 -526 -779
-172 -275 -562 -910 -604 -982 l-28 -48 7441 0 7441 0 0 1060 0 1060 -3587 -1
c-3045 -1 -3604 -3 -3693 -15z"/>
<path d="M19200 13720 l0 -1060 1060 0 1060 0 0 1060 0 1060 -1060 0 -1060 0
0 -1060z"/>
<path d="M26140 13720 l0 -1060 1055 0 1055 0 0 1060 0 1060 -1055 0 -1055 0
0 -1060z"/>
<path d="M30280 14764 c-354 -48 -670 -165 -945 -347 -162 -108 -431 -352
-575 -522 -178 -210 -319 -497 -451 -915 -34 -109 -39 -136 -39 -222 l0 -98
4890 0 4890 0 0 1060 0 1060 -3832 -1 c-3257 -1 -3849 -3 -3938 -15z"/>
<path d="M3847 12503 c-13 -21 -829 -1302 -1812 -2848 -983 -1545 -1790 -2816
-1792 -2822 -4 -10 248 -13 1238 -13 l1244 0 165 258 c90 141 284 444 430 672
147 228 396 618 555 865 480 748 1139 1777 1545 2410 134 209 369 575 522 813
153 239 278 438 278 443 0 5 -6 9 -13 9 -7 0 -532 56 -1167 125 -634 69 -1157
125 -1162 125 -4 0 -18 -17 -31 -37z"/>
<path d="M19219 11058 l0 -1453 -23 75 c-78 259 -245 574 -441 835 -305 406
-661 676 -1071 811 -229 75 -247 77 -1789 204 -2659 218 -6235 503 -6241 497
-8 -7 48 -233 86 -347 175 -526 505 -926 972 -1181 136 -74 314 -150 473 -203
290 -95 82 -73 3050 -321 1809 -151 2718 -231 2755 -241 129 -37 220 -115 261
-222 30 -80 37 -219 14 -298 -37 -130 -123 -231 -233 -276 l-57 -23 -3757 -3
-3758 -2 0 1570 0 1570 -22 0 c-13 0 -475 34 -1028 74 -553 40 -1007 71 -1010
69 -3 -3 -6 -1213 -8 -2689 l-4 -2684 4951 0 4950 0 133 34 c441 114 786 301
1081 585 361 348 597 804 681 1312 14 85 27 170 29 189 2 19 5 -17 5 -81 2
-94 8 -141 36 -255 132 -534 388 -960 763 -1271 333 -275 806 -479 1193 -513
74 -6 1003 -10 2580 -10 2674 0 2495 -4 2734 54 514 124 968 379 1254 706 291
332 445 720 482 1206 8 108 -3 3122 -12 3128 -3 3 -2041 127 -2065 126 -10 0
-13 -248 -13 -1207 0 -812 -4 -1238 -11 -1298 -29 -237 -132 -425 -291 -532
-86 -57 -182 -90 -294 -101 -43 -4 -893 -6 -1889 -6 l-1810 2 -70 22 c-244 78
-391 226 -462 465 -17 56 -18 156 -21 1522 l-3 1462 -52 5 c-47 6 -2010 146
-2036 146 -8 0 -11 -397 -12 -1452z"/>
<path d="M28400 11890 c0 -37 82 -268 143 -405 122 -274 256 -450 537 -705
256 -233 496 -369 860 -488 240 -79 103 -65 2924 -302 1436 -121 2674 -224
2751 -230 214 -17 310 -48 389 -127 132 -130 139 -393 15 -558 -40 -52 -126
-95 -252 -125 -81 -20 -144 -20 -3783 -20 l-3701 0 -6 -507 c-4 -280 -10 -757
-13 -1060 l-7 -553 3826 0 c4178 0 3906 -4 4177 56 791 174 1376 717 1656
1537 72 211 97 347 114 632 13 207 1 492 -26 617 -59 282 -251 657 -487 951
-364 453 -841 737 -1363 811 -244 35 -1751 133 -5304 346 -2353 141 -2450 147
-2450 130z"/>
</g>
</svg>
