<?xml version="1.0" standalone="no"?>
<!DOCTYPE svg PUBLIC "-//W3C//DTD SVG 20010904//EN"
 "http://www.w3.org/TR/2001/REC-SVG-20010904/DTD/svg10.dtd">
<svg version="1.0" xmlns="http://www.w3.org/2000/svg"
 width="2048.000000pt" height="339.000000pt" viewBox="0 0 2048.000000 339.000000"
 preserveAspectRatio="xMidYMid meet">
<metadata>
Created by potrace 1.16, written by Peter Selinger 2001-2019
</metadata>
<g transform="translate(0.000000,339.000000) scale(0.100000,-0.100000)"
fill="#000000" stroke="none">
<path d="M1665 2914 c-504 -91 -905 -479 -1001 -971 -24 -118 -24 -328 0 -446
71 -364 322 -694 656 -862 155 -78 283 -116 455 -135 106 -12 1164 -13 1183
-2 10 7 12 155 10 708 l-3 699 -320 3 c-176 1 -330 0 -342 -3 l-23 -5 0 -395
c0 -382 -1 -396 -20 -415 -18 -18 -33 -20 -178 -20 -182 0 -228 10 -350 71
-148 75 -273 214 -337 374 -37 92 -46 245 -21 358 56 248 234 426 501 499 76
21 104 22 571 26 l492 3 6 37 c8 48 8 456 0 476 -6 14 -67 16 -603 15 -471 -1
-613 -4 -676 -15z"/>
<path d="M5555 2914 c-122 -22 -233 -59 -344 -114 -339 -170 -575 -477 -657
-856 -23 -108 -23 -341 0 -447 111 -507 496 -883 1006 -983 71 -14 179 -17
668 -21 321 -3 594 -2 608 1 l24 6 -2 703 -3 702 -320 3 c-176 1 -330 0 -342
-3 l-23 -5 0 -395 c0 -382 -1 -396 -20 -415 -18 -18 -33 -20 -177 -20 -183 0
-229 10 -353 72 -154 77 -295 242 -346 405 -25 79 -29 217 -10 313 51 256 227
436 501 512 76 21 105 22 575 27 l495 6 0 260 0 260 -600 2 c-484 1 -615 -2
-680 -13z"/>
<path d="M3618 2903 l-108 -4 0 -1213 0 -1213 68 -6 c85 -9 549 -9 580 -1 l22
6 0 1209 c0 955 -3 1210 -12 1216 -14 8 -365 12 -550 6z"/>
<path d="M8072 2883 c-6 -10 -49 -119 -97 -243 -288 -744 -499 -1288 -734
-1893 -56 -143 -101 -267 -101 -278 0 -19 10 -19 337 -17 l337 3 97 255 97
255 463 0 464 0 51 -140 c28 -77 68 -189 89 -248 30 -88 42 -110 62 -118 13
-5 177 -9 364 -9 267 0 341 3 345 13 4 11 -40 128 -279 732 -67 170 -241 612
-554 1410 -58 149 -113 276 -121 283 -12 9 -110 12 -414 12 -368 0 -398 -1
-406 -17z m564 -998 c73 -236 130 -432 128 -435 -10 -9 -577 -11 -586 -2 -7 7
245 778 294 902 l10 25 11 -30 c6 -16 70 -223 143 -460z"/>
<path d="M10126 2884 c-14 -14 -16 -113 -15 -957 1 -518 4 -1061 8 -1207 l6
-265 620 0 c453 0 640 4 695 13 147 25 246 54 349 104 175 84 286 216 331 394
22 86 27 266 9 343 -42 182 -200 323 -429 382 l-45 11 80 38 c191 89 292 209
329 392 84 413 -172 713 -648 759 -50 5 -357 9 -683 9 -525 0 -593 -2 -607
-16z m989 -464 c92 -8 121 -15 175 -43 85 -42 111 -85 111 -186 0 -76 -13
-111 -58 -152 -76 -72 -186 -99 -400 -99 l-153 0 0 239 c0 182 3 241 13 244
21 9 198 7 312 -3z m165 -968 c114 -37 176 -110 187 -217 12 -120 -39 -211
-145 -258 -87 -39 -144 -47 -348 -47 l-184 0 0 276 0 276 213 -4 c182 -4 221
-8 277 -26z"/>
<path d="M12145 2890 c-6 -9 201 -356 739 -1240 l161 -265 5 -465 c3 -256 7
-466 8 -467 1 -2 150 -3 331 -3 l329 0 6 22 c3 13 6 222 6 465 l0 443 451 751
c342 570 448 754 437 760 -7 5 -175 9 -374 9 -273 0 -364 -3 -376 -12 -9 -7
-114 -213 -234 -458 -120 -245 -225 -456 -233 -469 -14 -22 -23 -5 -255 455
l-241 479 -377 3 c-250 1 -379 -1 -383 -8z"/>
<path d="M14821 2886 c-8 -9 -11 -82 -9 -242 l3 -229 305 -5 c168 -3 306 -7
307 -8 2 -1 4 -440 5 -974 l3 -973 330 0 330 0 5 975 c3 536 6 976 8 978 1 1
135 2 298 2 163 -1 298 1 300 3 8 8 8 462 1 475 -13 19 -1870 18 -1886 -2z"/>
<path d="M17003 2893 c-10 -4 -13 -255 -13 -1208 0 -662 3 -1210 6 -1219 6
-14 93 -16 884 -16 483 0 885 3 894 6 14 5 16 35 16 234 0 228 0 228 -22 234
-13 3 -265 6 -560 6 l-538 0 0 265 0 265 498 0 c295 0 503 4 512 10 13 8 15
45 15 230 0 185 -2 222 -15 230 -9 6 -215 10 -511 10 l-497 0 -6 178 c-3 97
-2 206 2 242 l7 65 536 3 536 2 6 178 c3 97 3 202 -1 232 l-7 55 -865 2 c-476
1 -871 -1 -877 -4z"/>
<path d="M19070 2846 c0 -26 21 -36 78 -36 l32 0 0 -144 c0 -79 3 -151 6 -160
4 -10 18 -16 35 -16 l29 0 0 160 0 160 38 0 c61 0 82 10 82 36 l0 24 -150 0
-150 0 0 -24z"/>
<path d="M19420 2680 l0 -190 30 0 30 0 0 137 c0 97 3 134 11 126 5 -5 32 -66
59 -134 48 -124 48 -124 83 -127 l35 -3 46 118 c25 65 50 129 55 143 7 18 10
-9 10 -102 1 -69 4 -133 7 -142 4 -10 18 -16 35 -16 l29 0 0 191 0 190 -51 -3
-52 -3 -48 -125 c-27 -69 -53 -134 -57 -144 -7 -16 -21 12 -66 127 l-58 147
-49 0 -49 0 0 -190z"/>
</g>
</svg>
