<?xml version="1.0" standalone="no"?>
<!DOCTYPE svg PUBLIC "-//W3C//DTD SVG 20010904//EN"
 "http://www.w3.org/TR/2001/REC-SVG-20010904/DTD/svg10.dtd">
<svg version="1.0" xmlns="http://www.w3.org/2000/svg"
 width="1280.000000pt" height="389.000000pt" viewBox="0 0 1280.000000 389.000000"
 preserveAspectRatio="xMidYMid meet">
<metadata>
Created by potrace 1.16, written by Peter Selinger 2001-2019
</metadata>
<g transform="translate(0.000000,389.000000) scale(0.100000,-0.100000)"
fill="#000000" stroke="none">
<path d="M5243 3872 c-141 -50 -216 -155 -216 -302 0 -90 22 -147 83 -214 63
-68 135 -100 229 -100 129 0 222 55 282 166 31 57 34 70 34 148 0 100 -24 159
-89 225 -84 83 -217 115 -323 77z"/>
<path d="M10960 2485 l0 -1355 240 0 240 0 0 523 c0 297 5 552 10 592 28 190
156 328 340 366 31 6 96 9 147 7 78 -4 103 -10 157 -37 124 -61 196 -169 216
-325 5 -39 10 -308 10 -598 l0 -528 241 0 240 0 -3 643 -4 642 -26 97 c-42
153 -106 267 -208 368 -152 153 -305 211 -555 211 -202 -1 -376 -62 -504 -178
l-61 -55 0 491 0 491 -240 0 -240 0 0 -1355z"/>
<path d="M0 2480 l0 -1350 240 0 240 0 0 1350 0 1350 -240 0 -240 0 0 -1350z"/>
<path d="M6030 3330 l0 -290 -125 0 -125 0 0 -220 0 -220 125 0 125 0 0 -735
0 -735 240 0 240 0 0 735 0 735 130 0 130 0 0 220 0 220 -130 0 -130 0 0 290
0 290 -240 0 -240 0 0 -290z"/>
<path d="M9884 3089 c-128 -9 -241 -41 -369 -104 -267 -130 -457 -360 -531
-640 -23 -86 -27 -121 -27 -245 0 -199 31 -330 117 -493 124 -238 359 -421
631 -494 90 -24 117 -26 275 -26 158 0 185 2 275 26 200 53 412 181 516 310
l31 39 -53 55 c-30 30 -107 104 -172 165 l-118 111 -57 -55 c-79 -78 -171
-134 -269 -164 -72 -23 -96 -26 -180 -22 -204 10 -363 111 -452 290 -123 244
-48 546 172 691 226 149 515 110 728 -97 l61 -59 168 168 169 169 -31 35 c-49
59 -148 139 -233 192 -188 116 -403 165 -651 148z"/>
<path d="M1483 3075 c-324 -59 -588 -260 -727 -556 -74 -157 -90 -235 -90
-434 0 -153 3 -180 27 -270 67 -249 220 -452 438 -583 345 -206 801 -200 1134
16 203 131 337 313 411 557 26 84 28 102 28 280 0 179 -1 195 -27 280 -117
380 -408 645 -782 710 -106 18 -312 18 -412 0z m312 -460 c287 -61 480 -346
421 -624 -53 -253 -249 -424 -501 -438 -163 -10 -287 37 -401 151 -79 79 -126
159 -149 258 -69 294 114 589 405 652 85 19 140 19 225 1z"/>
<path d="M3686 3075 c-389 -80 -668 -334 -783 -710 -25 -84 -27 -102 -27 -275
0 -162 2 -195 23 -270 58 -216 180 -400 350 -528 361 -272 899 -280 1266 -17
82 59 193 175 249 262 97 151 144 304 153 504 9 203 -26 375 -102 501 -19 31
-35 58 -35 60 0 3 27 13 60 23 l60 18 0 199 0 198 -337 0 c-311 0 -344 2 -413
21 -99 28 -361 35 -464 14z m319 -460 c247 -52 426 -270 427 -519 0 -152 -44
-266 -148 -376 -168 -178 -418 -220 -641 -108 -168 84 -283 274 -283 468 0
159 51 283 159 390 77 76 141 113 243 140 89 23 151 24 243 5z"/>
<path d="M7600 3071 c-187 -40 -345 -126 -476 -256 -198 -197 -294 -441 -294
-747 0 -280 84 -507 254 -685 180 -190 400 -285 697 -300 325 -17 650 95 862
295 31 30 57 60 57 66 0 12 -301 316 -312 316 -4 0 -44 -29 -88 -65 -139 -112
-281 -173 -425 -182 -188 -11 -350 61 -449 201 -36 50 -86 150 -86 171 0 3
331 5 735 5 l735 0 0 78 c0 560 -251 957 -687 1088 -77 23 -109 27 -263 30
-143 3 -190 0 -260 -15z m339 -416 c186 -44 312 -168 355 -347 l6 -28 -489 0
-490 0 20 57 c26 75 68 140 133 201 118 112 295 157 465 117z"/>
<path d="M5100 2085 l0 -955 240 0 240 0 0 955 0 955 -240 0 -240 0 0 -955z"/>
<path d="M2860 993 c0 -55 23 -208 41 -273 26 -96 87 -225 143 -304 62 -87
198 -212 293 -269 288 -172 701 -195 1006 -54 200 92 370 254 464 442 64 126
95 240 109 393 l7 82 -247 0 -246 0 0 -32 c0 -18 -7 -61 -15 -96 -43 -180
-182 -331 -365 -392 -74 -25 -203 -30 -285 -11 -194 46 -358 217 -401 420 -7
36 -14 76 -14 89 l0 22 -245 0 c-227 0 -245 -1 -245 -17z"/>
</g>
</svg>
